<?xml version="1.0" encoding="UTF-8"?>
<svg width="256" height="256" viewBox="0 0 256 256" xmlns="http://www.w3.org/2000/svg">
  <!-- Background circle -->
  <circle cx="128" cy="128" r="120" fill="#4a5568"/>
  
  <!-- PHP Elephant -->
  <g transform="translate(60, 60)">
    <ellipse cx="30" cy="60" rx="20" ry="25" fill="#777BB4"/>
    <ellipse cx="30" cy="45" rx="25" ry="30" fill="#777BB4"/>
    <circle cx="22" cy="40" r="4" fill="white"/>
    <circle cx="38" cy="40" r="4" fill="white"/>
    <circle cx="22" cy="40" r="2" fill="black"/>
    <circle cx="38" cy="40" r="2" fill="black"/>
    <path d="M 25 55 Q 30 60 35 55" stroke="white" stroke-width="2" fill="none"/>
    <ellipse cx="15" cy="75" rx="7" ry="20" fill="#777BB4"/>
    <ellipse cx="45" cy="75" rx="7" ry="20" fill="#777BB4"/>
  </g>
  
  <!-- Nginx -->
  <g transform="translate(150, 60)">
    <rect x="0" y="0" width="50" height="50" rx="8" fill="#009639"/>
    <text x="25" y="30" font-family="Arial" font-size="20" fill="white" text-anchor="middle">NG</text>
    <text x="25" y="45" font-family="Arial" font-size="12" fill="white" text-anchor="middle">INX</text>
  </g>
  
  <!-- MySQL -->
  <g transform="translate(100, 150)">
    <ellipse cx="25" cy="35" rx="20" ry="15" fill="#4479a1"/>
    <ellipse cx="25" cy="25" rx="15" ry="10" fill="#4479a1"/>
    <circle cx="18" cy="22" r="2" fill="white"/>
    <circle cx="32" cy="22" r="2" fill="white"/>
    <path d="M 20 30 Q 25 35 30 30" stroke="white" stroke-width="2" fill="none"/>
    <path d="M 35 25 Q 45 20 50 25 Q 45 30 35 25" fill="#4479a1"/>
  </g>
  
  <!-- Code brackets -->
  <text x="128" y="220" font-family="Courier New" font-size="40" fill="#68d391" text-anchor="middle">{ }</text>
</svg>